<svg xmlns="http://www.w3.org/2000/svg" width="512" height="512" viewBox="0 0 512 512" version="1.1"><path d="M 230.671 8.733 C 230.413 9.155, 226.945 18.050, 222.965 28.500 C 218.984 38.950, 215.370 47.896, 214.933 48.381 C 214.496 48.865, 209.166 50.542, 203.088 52.107 C 183.627 57.119, 162.622 66.045, 145.090 76.753 L 138.680 80.668 118.848 71.834 C 107.940 66.975, 98.669 63, 98.247 63 C 97.824 63, 89.651 70.837, 80.084 80.416 L 62.690 97.831 66.291 106.214 C 68.272 110.825, 72.322 120.009, 75.290 126.623 L 80.688 138.648 76.763 145.074 C 66.054 162.608, 57.120 183.621, 52.119 203.044 C 50.560 209.096, 48.959 214.375, 48.560 214.774 C 48.161 215.173, 38.984 218.899, 28.167 223.053 L 8.500 230.605 8.500 256 L 8.500 281.395 28.219 288.966 C 39.064 293.130, 48.330 296.979, 48.811 297.519 C 49.291 298.058, 50.253 301.200, 50.948 304.500 C 51.644 307.800, 53.558 314.731, 55.202 319.902 L 58.191 329.304 84.292 303.203 L 110.393 277.102 110.520 256.801 C 110.624 240.118, 111.024 234.807, 112.763 227 C 118.928 199.324, 130.971 176.013, 149.169 156.526 C 209.873 91.524, 313.717 95.194, 369.624 164.317 C 412.273 217.048, 412.821 292.143, 370.948 345.853 C 349.600 373.235, 321.319 390.837, 285.386 399.107 C 276.967 401.045, 272.488 401.399, 255.199 401.495 L 234.898 401.607 208.797 427.708 L 182.696 453.809 192.098 456.798 C 197.269 458.442, 204.200 460.356, 207.500 461.052 C 210.800 461.747, 213.942 462.709, 214.481 463.189 C 215.021 463.670, 218.870 472.936, 223.034 483.781 L 230.605 503.500 256 503.500 L 281.395 503.500 288.947 483.833 C 293.101 473.016, 296.827 463.839, 297.226 463.440 C 297.625 463.041, 302.904 461.440, 308.956 459.881 C 328.376 454.880, 349.393 445.946, 366.918 435.242 L 373.335 431.322 389.918 438.750 C 399.038 442.836, 408.230 446.879, 410.343 447.735 L 414.187 449.292 431.593 431.907 C 441.167 422.345, 449 414.176, 449 413.753 C 449 413.331, 445.025 404.060, 440.166 393.152 L 431.332 373.320 435.247 366.910 C 445.963 349.365, 455.167 327.708, 459.969 308.737 C 461.467 302.817, 463.024 297.642, 463.429 297.237 C 463.834 296.832, 473.016 293.101, 483.833 288.947 L 503.500 281.395 503.500 256 L 503.500 230.605 483.833 223.053 C 473.016 218.899, 463.834 215.168, 463.429 214.763 C 463.024 214.358, 461.467 209.183, 459.969 203.263 C 455.167 184.292, 445.963 162.635, 435.247 145.090 L 431.332 138.680 440.166 118.848 C 445.025 107.940, 449 98.669, 449 98.247 C 449 97.824, 441.167 89.655, 431.593 80.093 L 414.187 62.708 410.343 64.291 C 408.230 65.162, 399.021 69.215, 389.880 73.300 L 373.259 80.726 367.880 77.287 C 352.361 67.368, 327.668 56.823, 308.737 52.031 C 302.817 50.533, 297.642 48.976, 297.237 48.571 C 296.832 48.166, 293.102 38.984, 288.948 28.167 L 281.396 8.500 256.267 8.233 C 242.447 8.086, 230.928 8.311, 230.671 8.733 M 202.863 182.656 C 201.412 182.906, 197.815 184.551, 194.869 186.312 C 185.294 192.034, 180.616 203.228, 183.367 213.834 L 184.670 218.856 170.766 232.678 C 163.119 240.280, 156.219 247.715, 155.431 249.200 C 154.340 251.259, 154 256.246, 154 270.184 L 154 288.467 114.500 328.013 C 77.009 365.547, 75 367.743, 75 371.190 C 75 374.044, 75.682 375.396, 78.182 377.500 C 84.096 382.476, 83.591 382.873, 129 337.484 L 170.500 296.002 170.807 276.180 L 171.113 256.358 183.868 243.632 C 196.098 231.429, 196.735 230.949, 199.376 231.953 C 203.444 233.499, 213.525 233.224, 217.782 231.451 C 222.687 229.408, 228.784 223.477, 231.097 218.500 C 233.372 213.605, 233.604 203.381, 231.551 198.468 C 226.967 187.497, 214.532 180.643, 202.863 182.656 M 300.183 185.845 C 287.638 190.311, 280.478 203.919, 284.018 216.565 L 285.310 221.177 182.655 323.850 C 88.131 418.391, 80 426.783, 80 429.807 C 80 434.451, 83.765 438, 88.693 438 C 92.380 438, 95.098 435.380, 194.995 335.500 L 297.513 233 301 234 C 307.502 235.865, 314.345 235.223, 320.118 232.207 C 335.419 224.214, 338.633 204.641, 326.693 192.162 C 319.751 184.906, 309.609 182.489, 300.183 185.845 M 301.748 286.427 C 289.470 290.808, 282.029 305.469, 285.991 317.474 L 287.234 321.239 273.881 334.619 L 260.528 348 241.509 348 L 222.491 348 180.746 389.754 C 141.339 429.170, 139 431.709, 139 435.080 C 139 439.727, 142.335 443, 147.069 443 C 150.265 443, 153.316 440.193, 190 403.500 L 229.491 364 248.984 364 L 268.477 364 283.627 348.873 L 298.777 333.747 303.984 334.996 C 313.256 337.220, 322.280 334.600, 328.638 327.838 C 333.865 322.278, 335.445 318.266, 335.467 310.500 C 335.483 304.624, 335.020 302.656, 332.582 298.246 C 330.984 295.356, 328.182 291.851, 326.355 290.457 C 319.520 285.244, 309.610 283.621, 301.748 286.427" stroke="none" fill="#045c87" fill-rule="evenodd"/></svg>